<svg width="36" height="36" viewBox="0 0 36 36" fill="none" xmlns="http://www.w3.org/2000/svg">
<path d="M20.8127 10.6845C20.4246 10.6845 20.1099 10.9995 20.1099 11.3876C20.1099 11.7754 20.4246 12.0905 20.8127 12.0905C21.2008 12.0905 21.5156 11.7754 21.5156 11.3876C21.5156 10.9995 21.2008 10.6845 20.8127 10.6845Z" fill="#332208"/>
<path d="M16.5488 24.4171C16.8231 24.1422 16.8231 23.6973 16.5488 23.4223C16.2741 23.1482 15.8291 23.1482 15.5542 23.4223C15.2801 23.6973 15.2801 24.1422 15.5542 24.4171C15.8291 24.6912 16.2741 24.6912 16.5488 24.4171Z" fill="#332208"/>
<path d="M8.09911 35.7921C8.37165 36.0668 8.81537 36.0698 9.09148 35.7979L12.5005 32.4405C13.0797 31.8615 13.2558 31.0043 13.0011 30.2591L13.7344 29.5522C14.1292 29.1709 14.649 28.9608 15.1985 28.9608H24.5461C26.2045 28.9608 27.7719 28.3242 28.9601 27.1681C29.009 27.1206 28.589 27.6153 35.3372 19.5524C36.3381 18.3686 36.1884 16.591 35.0031 15.5893C33.8253 14.597 32.0609 14.7395 31.0573 15.903L26.9081 20.1663C26.3841 19.5216 25.5852 19.1198 24.7219 19.1198H16.881C15.7653 18.6532 14.5814 18.4169 13.3599 18.4169C9.97506 18.4169 7.01799 19.9792 5.4308 22.9115C4.76234 22.7848 4.05735 22.987 3.55017 23.494L0.205166 26.8479C-0.06793 27.1217 -0.0684794 27.5647 0.204067 27.8391L8.09911 35.7921ZM13.3596 19.8227C14.4366 19.8227 15.4779 20.0394 16.4552 20.4667C16.5442 20.5057 16.6401 20.5258 16.7371 20.5258H24.7219C25.4844 20.5258 26.1284 21.1473 26.1284 21.9315C26.1284 22.7068 25.4975 23.3375 24.7219 23.3375H18.985C18.5968 23.3375 18.2819 23.6522 18.2819 24.0403C18.2819 24.4287 18.5968 24.7432 18.985 24.7432H24.7219C26.2729 24.7432 27.5345 23.4819 27.5345 21.9315C27.5345 21.8079 27.5257 21.6854 27.5098 21.564C31.5235 17.4394 32.0895 16.8599 32.1137 16.8311C32.6148 16.2397 33.5044 16.1647 34.0962 16.6635C34.6886 17.1642 34.7636 18.053 34.2611 18.6477L27.9543 26.1848C27.0334 27.0687 25.8242 27.5551 24.5461 27.5551H15.1985C14.2825 27.5551 13.4154 27.9053 12.7577 28.5406L12.1601 29.1171L6.65148 23.6105C7.93893 21.1959 10.3548 19.8227 13.3596 19.8227ZM4.5453 24.4875C4.77718 24.2556 5.13325 24.2139 5.41596 24.3886C5.52338 24.4539 11.5375 30.4811 11.5746 30.5308C11.7804 30.8079 11.751 31.2015 11.5101 31.4426L8.60381 34.3049L1.69483 27.3453L4.5453 24.4875Z" fill="#332208"/>
<path d="M10.9693 14.9022H27.8449C29.0082 14.9022 29.9544 13.9562 29.9544 12.7933C29.9544 11.0215 29.9544 3.38297 29.9544 2.10883C29.9544 0.945924 29.0082 0 27.8449 0H10.9693C9.80608 0 8.85986 0.945924 8.85986 2.10883V12.7933C8.85986 13.9562 9.80608 14.9022 10.9693 14.9022ZM28.548 5.62336H10.2663V4.21766H28.548V5.62336ZM27.8449 13.4964H10.9693C10.5817 13.4964 10.2663 13.1809 10.2663 12.7933V7.02934H28.548V12.7933C28.548 13.1809 28.2326 13.4964 27.8449 13.4964ZM10.9693 1.40598H27.8449C28.2326 1.40598 28.548 1.72129 28.548 2.10883V2.81168H10.2663V2.10883C10.2663 1.72129 10.5817 1.40598 10.9693 1.40598Z" fill="#332208"/>
<path d="M26.4385 10.6845H23.6259C23.2377 10.6845 22.9229 10.9992 22.9229 11.3876C22.9229 11.7757 23.2377 12.0905 23.6259 12.0905H26.4385C26.827 12.0905 27.1418 11.7757 27.1418 11.3876C27.1418 10.9992 26.827 10.6845 26.4385 10.6845Z" fill="#332208"/>
</svg>
