<svg width="42" height="42" viewBox="0 0 42 42" fill="none" xmlns="http://www.w3.org/2000/svg">
<path d="M21 42C32.598 42 42 32.598 42 21C42 9.40202 32.598 0 21 0C9.40202 0 0 9.40202 0 21C0 32.598 9.40202 42 21 42Z" fill="#FEFEFE"/>
<path d="M27.677 7H23.025C20.2643 7 17.1937 8.1611 17.1937 12.1628C17.2072 13.5571 17.1937 14.8925 17.1937 16.3954H14V21.4775H17.2925V36.1081H23.3427V21.381H27.3361L27.6974 16.3811H23.2385C23.2385 16.3811 23.2485 14.157 23.2385 13.5111C23.2385 11.9297 24.884 12.0202 24.983 12.0202C25.766 12.0202 27.2885 12.0225 27.6793 12.0202V7H27.677Z" fill="#5d93c5"/>
</svg>
