<svg width="42" height="43" viewBox="0 0 42 43" fill="none" xmlns="http://www.w3.org/2000/svg">

<g clip-path="url(#clip0)">
<circle cx="21" cy="21.1392" r="21" fill="#FEFEFE"/>
<path d="M27.9097 12.7395H15.1401C13.6984 12.7395 12.5999 13.838 12.5999 15.2797V28.0493C12.5999 29.491 13.6984 30.5895 15.1401 30.5895H27.9097C29.3515 30.5895 30.4499 29.491 30.4499 28.0493V15.2797C30.4499 13.838 29.3515 12.7395 27.9097 12.7395ZM21.5249 27.0195C24.477 27.0195 26.8799 24.6853 26.8799 21.8705C26.8799 21.3899 26.8113 20.8407 26.674 20.4287H28.1843V27.706C28.1843 28.0493 27.9097 28.3926 27.4978 28.3926H15.552C15.2088 28.3926 14.8655 28.118 14.8655 27.706V20.3601H16.4445C16.3072 20.8407 16.2386 21.3212 16.2386 21.8018C16.1699 24.6853 18.5728 27.0195 21.5249 27.0195ZM21.5249 24.9599C19.6026 24.9599 18.0922 23.4495 18.0922 21.5958C18.0922 19.7422 19.6026 18.2318 21.5249 18.2318C23.4472 18.2318 24.9576 19.7422 24.9576 21.5958C24.9576 23.5182 23.4472 24.9599 21.5249 24.9599ZM28.1157 17.6139C28.1157 18.0258 27.7724 18.3691 27.3605 18.3691H25.4382C25.0263 18.3691 24.683 18.0258 24.683 17.6139V15.7603C24.683 15.3483 25.0263 15.0051 25.4382 15.0051H27.3605C27.7724 15.0051 28.1157 15.3483 28.1157 15.7603V17.6139Z" fill="#5d93c5"/>
</g>
<defs>
<clipPath id="clip0">
<rect width="42" height="42" fill="white" transform="translate(0 0.13916)"/>
</clipPath>
</defs>
</svg>
