<svg width="42" height="43" viewBox="0 0 42 43" fill="none" xmlns="http://www.w3.org/2000/svg">
<g clip-path="url(#clip0)">
<circle cx="21" cy="21.1392" r="21" fill="#FEFEFE"/>
<path d="M31.7958 26.7008C31.7958 26.6049 31.7082 26.6049 31.7082 26.509C31.3581 25.7419 30.5703 24.783 29.5199 23.7282C28.9947 23.2488 28.7321 22.8652 28.5571 22.6734C28.2945 22.2898 28.2945 22.0022 28.382 21.6186C28.4695 21.3309 28.8197 20.8515 29.4324 19.9885C29.7825 19.509 29.9576 19.2214 30.2202 18.9337C31.5332 17.0159 32.1459 15.7693 31.9708 15.1939L31.8833 15.0981C31.7958 15.0022 31.7082 14.9063 31.5332 14.9063C31.3581 14.8104 31.0955 14.8104 30.8329 14.9063H27.5067C27.4191 14.9063 27.4191 14.9063 27.2441 14.9063C27.1565 14.9063 27.069 14.9063 27.069 14.9063H26.9815H26.8939L26.8064 15.0022C26.7189 15.0981 26.7189 15.0981 26.7189 15.1939C26.3687 16.2487 25.9311 17.1118 25.4934 18.0707C25.2308 18.5501 24.9682 19.0296 24.7056 19.4131C24.443 19.7967 24.2679 20.0844 24.0929 20.2761C23.9178 20.4679 23.7427 20.5638 23.6552 20.7556C23.5677 20.8515 23.3926 20.9474 23.3926 20.8515C23.3051 20.8515 23.2176 20.8515 23.2176 20.7556C23.13 20.6597 23.0425 20.5638 22.955 20.4679C22.8674 20.372 22.8674 20.1803 22.7799 19.9885C22.7799 19.7967 22.7799 19.6049 22.7799 19.509C22.7799 19.4131 22.7799 19.1255 22.7799 18.9337C22.7799 18.646 22.7799 18.4542 22.7799 18.3583C22.7799 18.0707 22.7799 17.6871 22.7799 17.3035C22.7799 16.92 22.7799 16.6323 22.7799 16.4405C22.7799 16.2487 22.7799 15.9611 22.7799 15.7693C22.7799 15.4816 22.7799 15.2898 22.7799 15.1939C22.7799 15.0981 22.6924 14.9063 22.6924 14.8104C22.6048 14.7145 22.5173 14.6186 22.4298 14.5227C22.3422 14.4268 22.1672 14.4268 22.0796 14.3309C21.642 14.235 21.1168 14.1392 20.5041 14.1392C19.1035 14.1392 18.1407 14.2351 17.7905 14.4268C17.6155 14.5227 17.4404 14.6186 17.3529 14.8104C17.1778 15.0022 17.1778 15.0981 17.2653 15.0981C17.703 15.194 18.0531 15.3857 18.2282 15.6734L18.3157 15.8652C18.4033 15.9611 18.4033 16.1529 18.4908 16.4405C18.5783 16.7282 18.5783 17.0159 18.5783 17.3994C18.5783 17.9748 18.5783 18.5501 18.5783 18.9337C18.5783 19.4131 18.4908 19.7008 18.4908 19.9885C18.4908 20.2761 18.4033 20.4679 18.3157 20.5638C18.2282 20.7556 18.2282 20.8515 18.1407 20.8515C18.1407 20.8515 18.1407 20.9474 18.0531 20.9474C17.9656 20.9474 17.8781 21.0433 17.703 21.0433C17.6155 21.0433 17.4404 20.9474 17.3529 20.8515C17.1778 20.7556 17.0027 20.5638 16.9152 20.372C16.7401 20.1803 16.5651 19.8926 16.39 19.509C16.2149 19.1255 15.9523 18.7419 15.7773 18.1666L15.6022 17.783C15.5147 17.5912 15.3396 17.2077 15.1646 16.7282C14.9895 16.2487 14.8144 15.8652 14.6394 15.3857C14.5518 15.194 14.4643 15.0981 14.3768 15.0022H14.2892C14.2892 15.0022 14.2017 14.9063 14.1142 14.9063C14.0266 14.9063 13.9391 14.8104 13.8516 14.8104H10.7004C10.3503 14.8104 10.1752 14.9063 10.0877 15.0022L10.0001 15.0981C10.0001 15.0981 10.0001 15.194 10.0001 15.2898C10.0001 15.3857 10.0001 15.4816 10.0877 15.6734C10.5253 16.8241 11.0505 17.9748 11.5757 19.1255C12.1009 20.1803 12.6261 21.1392 12.9762 21.8104C13.4139 22.4816 13.764 23.1529 14.2017 23.7282C14.6394 24.3036 14.902 24.6871 14.9895 24.8789C15.1645 25.0707 15.2521 25.1666 15.3396 25.2624L15.6022 25.5501C15.7773 25.7419 16.0399 26.0296 16.39 26.3172C16.7401 26.6049 17.1778 26.8926 17.6155 27.1803C18.0531 27.4679 18.5783 27.6597 19.1035 27.8515C19.7163 28.0433 20.2415 28.1392 20.7666 28.0433H22.0796C22.3422 28.0433 22.5173 27.9474 22.6924 27.7556L22.7799 27.6597C22.7799 27.5638 22.8674 27.5638 22.8674 27.4679C22.8674 27.372 22.8674 27.2762 22.8674 27.0844C22.8674 26.7008 22.8674 26.4131 22.955 26.1255C23.0425 25.8378 23.0425 25.646 23.13 25.4542C23.2176 25.2625 23.3051 25.1666 23.3926 25.0707C23.4802 24.9748 23.5677 24.8789 23.5677 24.8789H23.6552C23.8303 24.783 24.0929 24.8789 24.268 25.0707C24.5306 25.2625 24.7931 25.5501 24.9682 25.8378C25.1433 26.1255 25.4059 26.4131 25.756 26.7967C26.1062 27.1803 26.3687 27.4679 26.5438 27.5638L26.8064 27.7556C26.9815 27.8515 27.1565 27.9474 27.4191 28.0433C27.6817 28.1392 27.8568 28.1392 28.0319 28.1392L31.008 28.0433C31.2706 28.0433 31.5332 27.9474 31.7082 27.8515C31.8833 27.7556 31.9708 27.6597 31.9708 27.4679C31.9708 27.372 31.9708 27.1803 31.9708 27.0844C31.7958 26.8926 31.7958 26.7967 31.7958 26.7008Z" fill="#5d93c5"/>
</g>
<defs>
<clipPath id="clip0">
<rect width="42" height="42" fill="white" transform="translate(0 0.13916)"/>
</clipPath>
</defs>
</svg>
